HIERARCHY
ROOT Hips
{
	OFFSET 7.7125 38.4228 -161.4020
	CHANNELS 6 Xposition Yposition Zposition Xrotation Yrotation Zrotation
	JOINT Spine
	{
		OFFSET 0.0000 7.4000 0.0000
		CHANNELS 3 Xrotation Yrotation Zrotation
		JOINT Head
		{
			OFFSET 0.0000 16.5127 0.0000
			CHANNELS 3 Xrotation Yrotation Zrotation
			End Site
			{
				OFFSET 0.0000 4.5275 0.0000
			}
		}
		JOINT LeftShoulder
		{
			OFFSET 0.0000 11.0747 0.0000
			CHANNELS 3 Xrotation Yrotation Zrotation
			JOINT LeftArm
			{
				OFFSET 8.2554 0.0000 0.0000
				CHANNELS 3 Xrotation Yrotation Zrotation
				JOINT LeftForeArm
				{
					OFFSET 11.1751 0.0000 0.0000
					CHANNELS 3 Xrotation Yrotation Zrotation
					JOINT LeftHand
					{
						OFFSET 9.4775 0.0000 0.0000
						CHANNELS 3 Xrotation Yrotation Zrotation
						JOINT LeftHandThumb1
						{
							OFFSET 0.0000 0.0000 0.0000
							CHANNELS 3 Xrotation Yrotation Zrotation
							End Site
							{
								OFFSET 0.0000 0.0000 3.9370
							}
						}
						JOINT LeftHand_End
						{
							OFFSET 3.9370 0.0000 0.0000
							CHANNELS 3 Xrotation Yrotation Zrotation
							End Site
							{
								OFFSET 0.0000 0.0000 0.0000
							}
						}
					}
				}
			}
		}
		JOINT RightShoulder
		{
			OFFSET 0.0000 11.0747 0.0000
			CHANNELS 3 Xrotation Yrotation Zrotation
			JOINT RightArm
			{
				OFFSET -8.2554 0.0000 0.0000
				CHANNELS 3 Xrotation Yrotation Zrotation
				JOINT RightForeArm
				{
					OFFSET -11.1751 0.0000 0.0000
					CHANNELS 3 Xrotation Yrotation Zrotation
					JOINT RightHand
					{
						OFFSET -9.4775 0.0000 0.0000
						CHANNELS 3 Xrotation Yrotation Zrotation
						JOINT RightHandThumb1
						{
							OFFSET 0.0000 0.0000 0.0000
							CHANNELS 3 Xrotation Yrotation Zrotation
							End Site
							{
								OFFSET 0.0000 0.0000 3.9370
							}
						}
						JOINT RightHand_End
						{
							OFFSET -3.9370 0.0000 0.0000
							CHANNELS 3 Xrotation Yrotation Zrotation
							End Site
							{
								OFFSET 0.0000 0.0000 0.0000
							}
						}
					}
				}
			}
		}
	}
	JOINT LeftUpLeg
	{
		OFFSET 3.6339 0.0000 0.0000
		CHANNELS 3 Xrotation Yrotation Zrotation
		JOINT LeftLeg
		{
			OFFSET 0.0000 -18.3740 0.0000
			CHANNELS 3 Xrotation Yrotation Zrotation
			JOINT LeftFoot
			{
				OFFSET 0.0000 -17.5024 0.0000
				CHANNELS 3 Xrotation Yrotation Zrotation
				JOINT LeftToeBase
				{
					OFFSET 0.0000 -1.4944 5.5772
					CHANNELS 3 Xrotation Yrotation Zrotation
					End Site
					{
						OFFSET 0.0000 0.0000 2.9527
					}
				}
			}
		}
	}
	JOINT RightUpLeg
	{
		OFFSET -3.6339 0.0000 0.0000
		CHANNELS 3 Xrotation Yrotation Zrotation
		JOINT RightLeg
		{
			OFFSET 0.0000 -18.3740 0.0000
			CHANNELS 3 Xrotation Yrotation Zrotation
			JOINT RightFoot
			{
				OFFSET 0.0000 -17.5024 0.0000
				CHANNELS 3 Xrotation Yrotation Zrotation
				JOINT RightToeBase
				{
					OFFSET 0.0000 -1.4944 5.5772
					CHANNELS 3 Xrotation Yrotation Zrotation
					End Site
					{
						OFFSET 0.0000 0.0000 2.9527
					}
				}
			}
		}
	}
}
MOTION
Frames: 10
Frame Time: 0.008333
15.7529 35.4073 -156.4690 9.0455 -88.1867 2.2890 18.6171 -7.3708 1.0767 -31.3459 70.9461 5.3652 2.0693 26.6816 -0.4688 4.9089 -9.0336 -87.7528 19.4037 -29.9630 9.9772 0.0358 4.0945 -0.5008 -0.0000 0.0000 -0.0000 -0.0000 0.0000 -0.0000 3.7778 -5.9247 -16.5672 -0.4648 46.2900 79.0265 -5.7535 31.7526 3.0352 0.0675 -8.3000 0.4675 -0.0000 0.0000 -0.0000 -0.0000 0.0000 -0.0000 -12.3992 1.9244 -16.6554 19.9000 -0.0000 0.0000 -22.3606 8.5503 -2.6719 5.0455 0.0000 0.0000 -18.1358 6.5905 -12.2391 85.2140 -0.0000 0.0000 -2.6952 -2.5018 24.5908 -4.8291 0.0000 -0.0000 
15.1674 35.5665 -156.4050 8.6430 -86.6055 1.6425 18.6734 -7.7814 1.8323 -30.9712 70.4099 4.9776 2.2088 26.6046 -0.2807 4.5475 -9.9402 -87.7001 19.4659 -32.5335 10.7625 0.0680 3.7867 -1.0290 -0.0000 0.0000 -0.0000 -0.0000 0.0000 -0.0000 4.5264 -6.4126 -16.2775 0.1309 46.1787 78.8644 -5.5885 30.1200 2.8111 0.2032 -8.3999 1.3906 -0.0000 0.0000 -0.0000 -0.0000 0.0000 -0.0000 -10.7295 0.3351 -16.6804 18.1793 0.0000 0.0000 -21.7973 7.9292 -2.3449 4.6730 -0.0000 -0.0000 -19.9170 6.9796 -11.7431 84.8710 0.0000 0.0000 -4.2474 -3.2047 23.1617 -5.5884 0.0000 -0.0000 
14.5564 35.7160 -156.3420 7.6354 -85.2936 0.3017 18.7518 -7.9225 2.5965 -30.6744 69.9611 4.6996 2.2142 26.5239 0.0021 4.3538 -10.7830 -87.6429 19.8360 -35.0754 11.7113 0.0986 3.5710 -1.5824 -0.0000 0.0000 -0.0000 -0.0000 0.0000 -0.0000 5.3532 -6.9423 -15.9956 0.7000 46.0612 78.6901 -5.4662 28.5816 2.6212 0.3333 -8.4807 2.2591 -0.0000 0.0000 -0.0000 -0.0000 0.0000 -0.0000 -8.9278 -1.1900 -16.5160 16.3785 0.0000 -0.0000 -21.1616 7.5678 -2.1043 4.1290 0.0000 0.0000 -21.5739 7.4865 -11.0948 84.1871 0.0000 0.0000 -5.7050 -3.6623 21.7192 -6.0212 0.0000 -0.0000 
13.9652 35.8644 -156.3000 7.8061 -83.7393 0.0417 18.8067 -8.2709 3.4406 -30.7499 69.4760 4.8204 2.1178 26.3828 0.3954 4.2514 -11.5523 -87.5737 20.5240 -37.7755 12.9158 0.1019 3.2325 -1.8060 -0.0000 0.0000 -0.0000 -0.0000 0.0000 -0.0000 6.2742 -7.4491 -15.6220 1.1877 45.8886 78.5074 -5.8105 27.1488 2.6586 0.3921 -8.7076 2.5882 -0.0000 0.0000 -0.0000 -0.0000 0.0000 -0.0000 -7.3854 -3.2266 -16.2133 14.6833 0.0000 -0.0000 -20.6070 7.3691 -1.3952 3.8697 0.0000 0.0000 -23.1882 7.7681 -10.4133 83.1353 0.0000 0.0000 -7.0987 -3.9154 20.6812 -7.3985 -0.0000 0.0000 
13.3594 36.0071 -156.2460 7.8078 -82.4233 -0.3565 18.8355 -8.4123 4.1553 -30.9007 68.7588 5.0488 2.2577 26.3264 0.7062 3.8378 -12.4584 -87.4419 21.0301 -40.4345 14.0016 0.1236 3.1746 -2.2309 -0.0000 0.0000 -0.0000 -0.0000 0.0000 -0.0000 7.1984 -8.0070 -15.1800 1.7435 45.7964 78.2086 -6.1397 25.8230 2.6827 0.4804 -8.8524 3.1187 -0.0000 0.0000 -0.0000 -0.0000 0.0000 -0.0000 -5.7029 -5.1603 -15.8435 12.8185 -0.0000 -0.0000 -20.3504 7.3722 0.1045 4.4596 0.0000 0.0000 -24.7089 8.2883 -9.7279 81.8091 -0.0000 -0.0000 -8.8685 -3.9966 20.7633 -7.4286 0.0000 0.0000 
12.7514 36.1361 -156.2090 8.0203 -81.0487 -0.6712 18.8351 -8.6297 4.9532 -31.3621 68.1349 5.6557 2.3458 26.2284 1.0933 3.5485 -13.2972 -87.2738 21.7822 -43.1409 15.2832 0.1444 3.1514 -2.6252 -0.0000 0.0000 -0.0000 -0.0000 0.0000 -0.0000 8.1784 -8.5395 -14.7214 2.2290 45.6086 77.9261 -5.9578 24.6410 2.4914 0.6519 -8.6070 4.3475 -0.0000 0.0000 -0.0000 -0.0000 0.0000 -0.0000 -4.0732 -7.0774 -15.2192 11.0689 0.0000 0.0000 -19.7462 7.3109 0.3610 4.0239 0.0000 -0.0000 -26.1334 8.7464 -8.8929 80.0927 0.0000 0.0000 -10.2116 -3.8031 20.2527 -6.1431 0.0000 0.0000 
12.1398 36.2530 -156.1950 8.4795 -79.6331 -0.8768 18.8146 -8.9053 5.8095 -32.3021 67.4110 6.7150 2.3465 26.1515 1.5552 3.3441 -14.0541 -87.0640 22.8519 -45.9766 16.8584 0.1659 3.2286 -2.9430 -0.0000 0.0000 -0.0000 -0.0000 0.0000 -0.0000 9.0196 -9.1089 -14.1773 2.7188 44.6864 77.5251 -7.4611 23.7075 3.0141 0.9897 -8.7954 6.4461 -0.0000 0.0000 -0.0000 -0.0000 0.0000 -0.0000 -2.4977 -8.6983 -14.3499 9.6118 -0.0000 0.0000 -19.2908 7.0071 0.7204 3.4248 -0.0000 0.0000 -27.5326 9.0147 -7.9511 78.1259 0.0000 0.0000 -11.2233 -3.5083 19.2355 -6.1826 -0.0000 0.0000 
11.5262 36.3534 -156.1860 8.7629 -78.2686 -1.2778 18.8231 -9.1766 6.6272 -33.2747 66.7070 7.8238 2.5850 26.1956 1.9426 2.7980 -15.0311 -86.7608 23.6766 -48.7390 18.2429 0.1917 3.3341 -3.2933 -0.0000 0.0000 -0.0000 -0.0000 0.0000 -0.0000 9.8693 -9.6030 -13.6483 3.3357 44.5813 77.1807 -8.1001 22.7918 3.1557 1.0421 -8.8670 6.7303 -0.0000 0.0000 -0.0000 -0.0000 0.0000 -0.0000 -0.8785 -10.0598 -13.3734 8.2978 0.0000 0.0000 -18.6391 6.5632 2.0248 2.3066 0.0000 0.0000 -28.7775 9.3570 -7.0098 75.8266 0.0000 0.0000 -12.1481 -3.9346 19.4171 -2.7559 0.0000 0.0000 
10.9115 36.4354 -156.1800 9.1016 -76.8517 -1.5941 18.8173 -9.5599 7.3425 -34.5049 65.9563 9.2256 2.5308 26.0610 2.5497 2.5411 -15.7595 -86.4724 25.3383 -51.3249 20.2881 0.2295 3.4338 -3.8266 -0.0000 0.0000 -0.0000 -0.0000 0.0000 -0.0000 10.7460 -10.0923 -13.0706 3.9301 44.5143 76.8314 -8.6310 22.0663 3.2637 1.0878 -8.8515 7.0350 -0.0000 0.0000 -0.0000 -0.0000 0.0000 -0.0000 0.7142 -11.5179 -12.2962 6.9715 0.0000 -0.0000 -18.5800 6.5095 0.3950 3.6654 0.0000 0.0000 -29.9550 9.5182 -6.2021 73.3545 0.0000 0.0000 -12.9524 -3.8136 19.0958 -2.8345 -0.0000 -0.0000 
10.2903 36.5014 -156.1740 9.3007 -75.4104 -1.9885 18.8496 -10.0222 7.9123 -35.9645 65.1030 10.8473 2.1037 25.7725 3.4047 2.6799 -16.3707 -86.1306 27.2979 -53.9083 22.6382 0.1871 2.8827 -3.7150 -0.0000 0.0000 -0.0000 -0.0000 0.0000 -0.0000 11.6288 -10.5835 -12.4312 4.5066 44.4183 76.4820 -9.0214 21.5299 3.3346 1.1345 -8.7736 7.3972 -0.0000 0.0000 -0.0000 -0.0000 0.0000 -0.0000 2.4138 -12.4035 -11.1979 5.7909 0.0000 -0.0000 -18.3668 5.8412 -0.1303 3.3543 0.0000 -0.0000 -30.9360 9.6204 -5.5159 70.6326 0.0000 0.0000 -13.8339 -3.1900 18.7042 -7.2560 -0.0000 -0.0000 
